<svg id="Layer_1" data-name="Layer 1" xmlns="http://www.w3.org/2000/svg" viewBox="0 0 563.31 121.79"><title>RHRE Logo</title><path d="M44.76,68.84,36.41,49.61H28.06V68.84H17.69V17H44.11c6,0,10.23,4.18,10.23,10.23V39.39c0,4.9-2.74,8.57-7.06,9.79l8.64,19.66ZM44,29.24a2.2,2.2,0,0,0-2.45-2.45H28.06V40H41.52A2.2,2.2,0,0,0,44,37.52Z" transform="translate(-17.69 -13.21)" style="fill:#c62305"/><path d="M98.4,17v9.79H74.86V37.44H93.94v9.79H74.86V59H98.4v9.79H64.49V17Z" transform="translate(-17.69 -13.21)" style="fill:#c62305"/><path d="M134.55,17c6,0,10.22,4.18,10.22,10.23V58.61c0,6-4.18,10.23-10.22,10.23h-27V17ZM132,59a2.2,2.2,0,0,0,2.45-2.45V29.24A2.2,2.2,0,0,0,132,26.79h-14V59Z" transform="translate(-17.69 -13.21)" style="fill:#c62305"/><path d="M173.93,17H184.3V37.44h17.86V17h10.37V68.84H202.15V47.24H184.3v21.6H173.93Z" transform="translate(-17.69 -13.21)" style="fill:#c62305"/><path d="M250.25,16.71c6,0,10.23,4.18,10.23,10.22v32c0,6-4.18,10.23-10.23,10.23H232.89c-6,0-10.22-4.18-10.22-10.23v-32c0-6,4.18-10.22,10.22-10.22Zm-.14,12.24a2.2,2.2,0,0,0-2.45-2.45H235.49A2.2,2.2,0,0,0,233,28.95V56.89a2.2,2.2,0,0,0,2.45,2.45h12.17a2.2,2.2,0,0,0,2.45-2.45Z" transform="translate(-17.69 -13.21)" style="fill:#c62305"/><path d="M306.84,58.9c0,6-4.18,10.23-10.22,10.23H280.05c-6,0-10.22-4.18-10.22-10.23V17H280.2V56.89a2.2,2.2,0,0,0,2.45,2.45H294a2.2,2.2,0,0,0,2.45-2.45V17h10.37Z" transform="translate(-17.69 -13.21)" style="fill:#c62305"/><path d="M341.61,28.95a2.2,2.2,0,0,0-2.45-2.45H328.8a2.2,2.2,0,0,0-2.45,2.45v4.9c0,1.58.86,2.09,2.45,2.45l13.39,2.88c5.62,1.22,10.37,4.61,10.37,10.37V58.9c0,6-4.18,10.23-10.22,10.23H326.21c-6,0-10.23-4.18-10.23-10.23V52.28h10.08v4.61a2.2,2.2,0,0,0,2.45,2.45h11.23a2.2,2.2,0,0,0,2.45-2.45V51.41c0-1.58-.86-2.09-2.45-2.45l-13.39-2.88C320.73,44.86,316,41.48,316,35.72V26.93c0-6,4.18-10.22,10.23-10.22h15.26c6,0,10.23,4.18,10.23,10.22v6H341.61Z" transform="translate(-17.69 -13.21)" style="fill:#c62305"/><path d="M396.33,17v9.79H372.79V37.44h19.08v9.79H372.79V59h23.55v9.79H362.42V17Z" transform="translate(-17.69 -13.21)" style="fill:#c62305"/><path d="M221.23,111.65a90.94,90.94,0,0,0-5.33,11.89,11.36,11.36,0,0,1-1.2,2.87,1.71,1.71,0,0,1-1.26.41,1.32,1.32,0,0,1-1.08-.47,1.44,1.44,0,0,1-.35-.91q0-1.38,2.64-7.32a105.78,105.78,0,0,1,5-9.73,7.71,7.71,0,0,1-.41-2.05,1.89,1.89,0,0,1,.76-1.58,1.32,1.32,0,0,1,.82-.29,2.71,2.71,0,0,1,1.05.29l3.25-5.6q2.52-4.89,2.78-5.74-.79.35-1.26.62a1.85,1.85,0,0,1-.79.26.76.76,0,0,1-.64-.41,1.33,1.33,0,0,1-.21-.73q0-1.46,2-2.58a21.33,21.33,0,0,1,2.7-1.32,10.65,10.65,0,0,1,.62-1.82,1.38,1.38,0,0,1,1.32-.79,2.08,2.08,0,0,1,1.73,1.11,21.39,21.39,0,0,1,2.62-.62,14.59,14.59,0,0,1,2.36-.21,6.62,6.62,0,0,1,5.16,1.93,6.44,6.44,0,0,1,1.67,4.48,12.18,12.18,0,0,1-3.37,8.14A20.13,20.13,0,0,1,233.3,107a23.28,23.28,0,0,1-8,1.46q-.67,0-2.05-.09a23.59,23.59,0,0,0,1.26,3.57q1.38,2.9,3.93,8.32.73,1.44,2.4,4.1a2.48,2.48,0,0,1,.44,1.29,1.37,1.37,0,0,1-.64,1.05,2.15,2.15,0,0,1-1.14.47q-.73,0-1.55-1.55l-1-1.82A95.05,95.05,0,0,1,221.23,111.65Zm3.57-6.33q1.11.06,1.67.06a17.74,17.74,0,0,0,11.34-4.25,15.8,15.8,0,0,0,3.75-4.34,6.19,6.19,0,0,0,.91-3.22,3.1,3.1,0,0,0-1.1-2.59,5.27,5.27,0,0,0-3.3-.86,11.32,11.32,0,0,0-4,.76q-.79.29-2.26,1-1,2.34-3.34,6.78T224.81,105.32Z" transform="translate(-17.69 -13.21)" style="fill:#fff"/><path d="M240,118.92v.53a1.92,1.92,0,0,0,.32,1.11,2.69,2.69,0,0,0,2.4,1.08q3.66,0,8.47-5.62.85-1,1.44-1a.85.85,0,0,1,.76.76q0,1.14-2.81,3.87a21.16,21.16,0,0,1-4.69,3.49,9.82,9.82,0,0,1-4.63,1.35,4.24,4.24,0,0,1-3.46-1.52,4.45,4.45,0,0,1-.85-2.87q0-5,4.66-9.7,3.78-3.87,6.59-3.87a2.22,2.22,0,0,1,1.38.47,2,2,0,0,1,.76,1.61,7.55,7.55,0,0,1-1.44,3.81A15.27,15.27,0,0,1,240,118.92Zm.64-2.29a11.78,11.78,0,0,0,3.22-1.58,13,13,0,0,0,3.25-3.57,2.45,2.45,0,0,0,.44-1.26q0-.59-.56-.59a4.11,4.11,0,0,0-2.17,1.14A15,15,0,0,0,240.66,116.63Z" transform="translate(-17.69 -13.21)" style="fill:#fff"/><path d="M262.8,119.71a22.12,22.12,0,0,1-1.9,2.87q-1.85,2.29-3.66,2.29a2.73,2.73,0,0,1-2.46-1.49,4.5,4.5,0,0,1-.56-2.29,15.72,15.72,0,0,1,2.05-7.18,19,19,0,0,1,5.51-6.71,7,7,0,0,1,4.07-1.52,2.9,2.9,0,0,1,2.05.76,2.06,2.06,0,0,1,.7,1.52,4.88,4.88,0,0,1-.5,1.79,2,2,0,0,1,.44,1.08,4.91,4.91,0,0,1-.82,2,22.58,22.58,0,0,0-1.7,3.81,12.69,12.69,0,0,0-.91,4,2.86,2.86,0,0,0,.73,2,5.51,5.51,0,0,0,1.2.67,1.25,1.25,0,0,1,.73,1.23,1.14,1.14,0,0,1-.41.91,1.52,1.52,0,0,1-1,.38,3.42,3.42,0,0,1-2.72-1.41,4.38,4.38,0,0,1-.94-2.87Q262.69,121.05,262.8,119.71Zm3.66-9.64a2.91,2.91,0,0,0-.76-1,1.44,1.44,0,0,0-.88-.31q-2.23,0-4.83,3.9-2.87,4.31-2.87,7.29a1.87,1.87,0,0,0,.28,1.11,1,1,0,0,0,.83.38q1.41,0,3.28-3a49.44,49.44,0,0,0,2.61-4.83,25.59,25.59,0,0,1,1.49-2.75A4.29,4.29,0,0,1,266.47,110.07Z" transform="translate(-17.69 -13.21)" style="fill:#fff"/><path d="M274.52,114.81q-.88,2.29-1.32,3.69a7.92,7.92,0,0,0-.44,2q0,.73.7.73,1.05,0,2.72-2a36.09,36.09,0,0,0,2.34-3.49q.62-1,1.29-1t.76.73q0,1.26-2.9,5.1-3,4-5.6,4a2.17,2.17,0,0,1-1.82-.94,2.68,2.68,0,0,1-.5-1.64,15.09,15.09,0,0,1,1-4.54,71.72,71.72,0,0,1,3-7.06A98.78,98.78,0,0,1,284,93q4.19-5.51,6.94-5.51a1.78,1.78,0,0,1,1.44.67,2.3,2.3,0,0,1,.59,1.55q0,4.1-7.32,13.65a70.66,70.66,0,0,1-7.85,8.5Q276.6,112.94,274.52,114.81Zm2.08-4.66A53.48,53.48,0,0,0,287.5,97Q290,92.84,290,91.49q0-.64-.56-.64-1.61,0-5.86,6.42A91.76,91.76,0,0,0,276.6,110.16Z" transform="translate(-17.69 -13.21)" style="fill:#fff"/><path d="M311.82,102.86l1.17-.21a57.32,57.32,0,0,1,9-1.23q1.85,0,1.85,1.49a1.24,1.24,0,0,1-.73,1.26,4.92,4.92,0,0,1-1.7.29,48,48,0,0,0-11.54,1.79,76.3,76.3,0,0,0-4.54,8.64,53.33,53.33,0,0,0-2.7,6.83l1.32-.47a65.07,65.07,0,0,1,6.39-1.9,27,27,0,0,1,5.13-.53,5.49,5.49,0,0,1,2.34.38,1.23,1.23,0,0,1,.67,1.23,1.16,1.16,0,0,1-.82,1.2,8.83,8.83,0,0,1-1.82.15A31.27,31.27,0,0,0,302,125.6a2.91,2.91,0,0,1-1.35.44,1.83,1.83,0,0,1-1.46-.85,2.3,2.3,0,0,1-.56-1.44,29.4,29.4,0,0,1,1.85-5.39,121.29,121.29,0,0,1,7.59-15.47q1.44-2.55,5.45-8.58.91-1.41,1.76-2.75a1.55,1.55,0,0,1-.23-2.93,25.69,25.69,0,0,1,5.86-1.38,74.21,74.21,0,0,1,11-1q2.55,0,2.55,1.35a1.91,1.91,0,0,1-.88,1.58,2.41,2.41,0,0,1-1.41.32l-.67,0h-1a60.05,60.05,0,0,0-6.09.44A34.9,34.9,0,0,0,318.5,91a1.41,1.41,0,0,1,.29.7A6.2,6.2,0,0,1,317.41,94L316,96.18Q313,100.64,311.82,102.86Z" transform="translate(-17.69 -13.21)" style="fill:#fff"/><path d="M334.7,105.09a4.72,4.72,0,0,1,2.72.64,2.25,2.25,0,0,1,.91,2A5.29,5.29,0,0,1,337,111a8.51,8.51,0,0,1-3.69,2.46,6.76,6.76,0,0,1-2.26.5q-1.23,0-1.23-1.08a1.21,1.21,0,0,1,.7-1.11q.18-.09,2-.5a4.43,4.43,0,0,0,2-1,1.93,1.93,0,0,0,.79-1.46,1.12,1.12,0,0,0-.35-.91,1.62,1.62,0,0,0-1.05-.29,6.89,6.89,0,0,0-3.75,1.38,4.42,4.42,0,0,0-2.37,3.69,7.32,7.32,0,0,0,1.55,3.81,7.92,7.92,0,0,1,1.73,4.22,4.57,4.57,0,0,1-2.29,4,5.76,5.76,0,0,1-3.19.91,5,5,0,0,1-4.28-2,5.69,5.69,0,0,1-1-3.4,6.19,6.19,0,0,1,1.17-3.84,2.07,2.07,0,0,1,1.58-1q.73,0,.73.59a1.66,1.66,0,0,1-.26.7,6.19,6.19,0,0,0-.67,3,3.26,3.26,0,0,0,1,2.43,2.91,2.91,0,0,0,2.08.88,2.21,2.21,0,0,0,1.79-.76,2.51,2.51,0,0,0,.53-1.64,6.08,6.08,0,0,0-1.41-3.19,8.67,8.67,0,0,1-1.93-4.89q0-2.93,3.19-5.19A11.28,11.28,0,0,1,334.7,105.09Z" transform="translate(-17.69 -13.21)" style="fill:#fff"/><path d="M347.24,105.67a47.8,47.8,0,0,0-3.52,6.62q-2.31,5.21-2.31,7.79a1.74,1.74,0,0,0,.31,1.11,1.12,1.12,0,0,0,.92.38q1.46,0,3.54-2.75a35.29,35.29,0,0,0,2.34-3.4q.56-1,1.2-1a.88.88,0,0,1,.64.26.8.8,0,0,1,.23.53q0,1.08-2.84,4.83-3.4,4.51-6.21,4.51a3,3,0,0,1-2.49-1.38,4.3,4.3,0,0,1-.62-2.49,21.24,21.24,0,0,1,2.05-8.26q.5-1.17,2.75-5.65a5.24,5.24,0,0,1-1.2.21,2,2,0,0,1-1.08-.29,1.2,1.2,0,0,1-.64-1,1.32,1.32,0,0,1,.85-1.17,13.86,13.86,0,0,1,2.17-.38,15.38,15.38,0,0,0,2.05-.56,52,52,0,0,1,3.34-5q1.29-1.76,1.79-2.29a1.91,1.91,0,0,1,1.23-.73,1.07,1.07,0,0,1,.76.41,1.14,1.14,0,0,1,.35.76q0,.76-1.64,3a27.5,27.5,0,0,0-1.61,2.37,20.68,20.68,0,0,1,4.66-.88q1.61,0,1.61,1.35a1.07,1.07,0,0,1-.56,1,4.71,4.71,0,0,1-1.52.29,29.38,29.38,0,0,0-4.42,1.11Q348.29,105.32,347.24,105.67Z" transform="translate(-17.69 -13.21)" style="fill:#fff"/><path d="M359.78,119.71a22.12,22.12,0,0,1-1.9,2.87q-1.85,2.29-3.66,2.29a2.73,2.73,0,0,1-2.46-1.49,4.5,4.5,0,0,1-.56-2.29,15.72,15.72,0,0,1,2.05-7.18,19,19,0,0,1,5.51-6.71,7,7,0,0,1,4.07-1.52,2.9,2.9,0,0,1,2.05.76,2.06,2.06,0,0,1,.7,1.52,4.88,4.88,0,0,1-.5,1.79,2,2,0,0,1,.44,1.08,4.91,4.91,0,0,1-.82,2,22.58,22.58,0,0,0-1.7,3.81,12.69,12.69,0,0,0-.91,4,2.86,2.86,0,0,0,.73,2,5.51,5.51,0,0,0,1.2.67,1.25,1.25,0,0,1,.73,1.23,1.14,1.14,0,0,1-.41.91,1.52,1.52,0,0,1-1,.38,3.42,3.42,0,0,1-2.72-1.41,4.38,4.38,0,0,1-.94-2.87Q359.66,121.05,359.78,119.71Zm3.66-9.64a2.91,2.91,0,0,0-.76-1,1.44,1.44,0,0,0-.88-.31q-2.23,0-4.83,3.9-2.87,4.31-2.87,7.29a1.87,1.87,0,0,0,.28,1.11,1,1,0,0,0,.83.38q1.41,0,3.28-3a49.44,49.44,0,0,0,2.61-4.83,25.59,25.59,0,0,1,1.49-2.75A4.29,4.29,0,0,1,363.44,110.07Z" transform="translate(-17.69 -13.21)" style="fill:#fff"/><path d="M377.41,105.67a47.8,47.8,0,0,0-3.52,6.62q-2.31,5.21-2.31,7.79a1.74,1.74,0,0,0,.31,1.11,1.12,1.12,0,0,0,.92.38q1.46,0,3.54-2.75a35.29,35.29,0,0,0,2.34-3.4q.56-1,1.2-1a.88.88,0,0,1,.64.26.8.8,0,0,1,.23.53q0,1.08-2.84,4.83-3.4,4.51-6.21,4.51a3,3,0,0,1-2.49-1.38,4.3,4.3,0,0,1-.62-2.49,21.24,21.24,0,0,1,2.05-8.26q.5-1.17,2.75-5.65a5.24,5.24,0,0,1-1.2.21,2,2,0,0,1-1.08-.29,1.2,1.2,0,0,1-.64-1,1.32,1.32,0,0,1,.85-1.17,13.86,13.86,0,0,1,2.17-.38,15.38,15.38,0,0,0,2.05-.56,52,52,0,0,1,3.34-5q1.29-1.76,1.79-2.29a1.91,1.91,0,0,1,1.23-.73,1.07,1.07,0,0,1,.76.41,1.14,1.14,0,0,1,.35.76q0,.76-1.64,3a27.5,27.5,0,0,0-1.61,2.37,20.68,20.68,0,0,1,4.66-.88q1.61,0,1.61,1.35a1.07,1.07,0,0,1-.56,1,4.71,4.71,0,0,1-1.52.29,29.38,29.38,0,0,0-4.42,1.11Q378.47,105.32,377.41,105.67Z" transform="translate(-17.69 -13.21)" style="fill:#fff"/><path d="M383.63,118.92v.53a1.92,1.92,0,0,0,.32,1.11,2.69,2.69,0,0,0,2.4,1.08q3.66,0,8.47-5.62.85-1,1.44-1a.85.85,0,0,1,.76.76q0,1.14-2.81,3.87a21.16,21.16,0,0,1-4.69,3.49,9.82,9.82,0,0,1-4.63,1.35,4.24,4.24,0,0,1-3.46-1.52,4.45,4.45,0,0,1-.85-2.87q0-5,4.66-9.7,3.78-3.87,6.59-3.87a2.22,2.22,0,0,1,1.38.47,2,2,0,0,1,.76,1.61,7.55,7.55,0,0,1-1.44,3.81A15.27,15.27,0,0,1,383.63,118.92Zm.64-2.29a11.78,11.78,0,0,0,3.22-1.58,13,13,0,0,0,3.25-3.57,2.45,2.45,0,0,0,.44-1.26q0-.59-.56-.59a4.11,4.11,0,0,0-2.17,1.14A15,15,0,0,0,384.27,116.63Z" transform="translate(-17.69 -13.21)" style="fill:#fff"/><line x1="509.82" y1="65.79" x2="559.31" y2="90.79" style="fill:none;stroke:#fff;stroke-linecap:round;stroke-linejoin:round;stroke-width:8px"/><line x1="543.47" y1="82.79" x2="546.83" y2="117.79" style="fill:none;stroke:#fff;stroke-linecap:round;stroke-linejoin:round;stroke-width:8px"/><line x1="509.82" y1="117.79" x2="546.83" y2="117.79" style="fill:none;stroke:#fff;stroke-linecap:round;stroke-linejoin:round;stroke-width:8px"/><polygon points="461.66 4 398.78 58.46 419.47 58.24 413.31 117.79 448.31 117.79 448.31 85.79 448.31 117.79 478.31 117.79 478.31 78.29 478.31 117.79 509.82 117.79 509.82 58.24 527.53 58.24 461.66 4" style="fill:none;stroke:#fff;stroke-linecap:round;stroke-linejoin:round;stroke-width:8px"/><line x1="478.31" y1="78.29" x2="448.31" y2="85.79" style="fill:none;stroke:#fff;stroke-linecap:round;stroke-linejoin:round;stroke-width:8px"/></svg>